<svg xmlns="http://www.w3.org/2000/svg" viewBox="0 0 64 64" width="64" height="64">
  <defs>
    <linearGradient id="latticeGrad" x1="0%" y1="0%" x2="100%" y2="100%">
      <stop offset="0%" style="stop-color:#6366f1;stop-opacity:1" />
      <stop offset="100%" style="stop-color:#8b5cf6;stop-opacity:1" />
    </linearGradient>
  </defs>
  <rect x="4" y="4" width="56" height="56" rx="8" fill="url(#latticeGrad)"/>
  <g fill="white">
    <circle cx="20" cy="20" r="4"/>
    <circle cx="32" cy="20" r="4"/>
    <circle cx="44" cy="20" r="4"/>
    <circle cx="20" cy="32" r="4"/>
    <circle cx="32" cy="32" r="4"/>
    <circle cx="44" cy="32" r="4"/>
    <circle cx="20" cy="44" r="4"/>
    <circle cx="32" cy="44" r="4"/>
    <circle cx="44" cy="44" r="4"/>
    <line x1="20" y1="20" x2="32" y2="20" stroke="white" stroke-width="2"/>
    <line x1="32" y1="20" x2="44" y2="20" stroke="white" stroke-width="2"/>
    <line x1="20" y1="32" x2="32" y2="32" stroke="white" stroke-width="2"/>
    <line x1="32" y1="32" x2="44" y2="32" stroke="white" stroke-width="2"/>
    <line x1="20" y1="44" x2="32" y2="44" stroke="white" stroke-width="2"/>
    <line x1="32" y1="44" x2="44" y2="44" stroke="white" stroke-width="2"/>
    <line x1="20" y1="20" x2="20" y2="32" stroke="white" stroke-width="2"/>
    <line x1="20" y1="32" x2="20" y2="44" stroke="white" stroke-width="2"/>
    <line x1="32" y1="20" x2="32" y2="32" stroke="white" stroke-width="2"/>
    <line x1="32" y1="32" x2="32" y2="44" stroke="white" stroke-width="2"/>
    <line x1="44" y1="20" x2="44" y2="32" stroke="white" stroke-width="2"/>
    <line x1="44" y1="32" x2="44" y2="44" stroke="white" stroke-width="2"/>
  </g>
</svg>
